# xmcd
#
# Track frame offsets:
#	150
#	13206
#	27566
#	45373
#	60650
#	78192
#	96620
#	114502
#	131701
#	152345
#	168799
#	183410
#	202337
#
# Disc length: 2917 seconds
#
# Revision: 1
# Processed by: cddbd v1.5.2PL0 Copyright (c) Steve Scherf et al.
# Submitted via: EasyCDDAExtractor 11.1.0.1
#
DISCID=ab0b630d
DTITLE=Various Artist - One For The Road
DYEAR=2000
DGENRE=Country
TTITLE0=Alecia Elliot - You Wanna What
TTITLE1=The Mavericks - Here Comes My Baby
TTITLE2=Allison Moorer - Think It Over
TTITLE3=Sons Of The Desert - Change
TTITLE4=Trish Yearwood - Real Live Woman
TTITLE5=Mark Wills - Back At One
TTITLE6=Gary Allan - Lovin' You Against My Will
TTITLE7=Vince Gill - Shoot Straight From The Heart
TTITLE8=Kathy Mattea - Trouble With Angels
TTITLE9=Reba McEntire - I'm Not Your Girl
TTITLE10=Rebecca Lynn Howard - When My Dreams Come True
TTITLE11=Wayne Hancock - Looking For Better Days
TTITLE12=Darryl Worley - When You Need My Love
EXTD=YEAR: 2000
EXTT0=
EXTT1=
EXTT2=
EXTT3=
EXTT4=
EXTT5=
EXTT6=
EXTT7=
EXTT8=
EXTT9=
EXTT10=
EXTT11=
EXTT12=
PLAYORDER=
